<?xml version="1.0" encoding="utf-8"?>
<!-- Generator: Adobe Illustrator 21.0.2, SVG Export Plug-In . SVG Version: 6.00 Build 0)  -->
<svg version="1.1" id="Capa_1" xmlns="http://www.w3.org/2000/svg" xmlns:xlink="http://www.w3.org/1999/xlink" x="0px" y="0px"
	 viewBox="0 0 1366 768" style="enable-background:new 0 0 1366 768;" xml:space="preserve">
<style type="text/css">
	.st0{fill:white;}
</style>
<path class="st0" d="M757.9,316c-24-43.2-62.8-74.1-109.3-87c-46.5-12.9-95-6.3-136.5,18.6c-41.6,24.9-71.3,65.3-83.8,113.6
	c-12.5,48.3-6.1,98.7,17.9,141.9c24,43.2,62.8,74.1,109.3,87c15.6,4.3,31.3,6.5,47,6.5c31.2,0,61.9-8.5,89.6-25.1
	c41.6-24.9,71.3-65.3,83.8-113.6C788.2,409.6,781.9,359.2,757.9,316 M677.3,544.9c-34.8,20.9-75.3,26.4-114.2,15.6
	c-38.9-10.8-71.3-36.7-91.4-72.8c-20.1-36.1-25.4-78.2-15-118.6c10.4-40.4,35.3-74.1,70.1-95c23.6-14.2,49.5-20.9,75-20.9
	c52.1,0,102.8,28,130.6,78.2C773.9,406,749.1,501.8,677.3,544.9"/>
<path class="st0" d="M581.3,371.2c8.4-5,18.3-6.9,27.9-5.3c14.6,2.5,29.1-3.1,38-14.6l2.1-2.8l-1.3-1.1c-25.7-20.5-61-21.5-87.8-2.6
	c-31.4,22.2-41.8,65.3-24.1,100.2c9.6,18.9,25.7,32.6,45.5,38.6c7,2.1,14,3.1,21.1,3.1c12.9,0,25.7-3.5,37.2-10.4
	c26.6-16,41-46.7,36.6-78.4l-0.4-1.7l-1.6,0.3c-14.7,2.3-27.3,13.1-32.7,28.1c-4,11.1-12.1,19.8-22.6,24.6c-17.8,8-39,2.1-50.5-14.1
	c-7.2-10.2-9.9-22.7-7.4-35C563.6,388,571,377.5,581.3,371.2"/>
<path class="st0" d="M729.1,388l-1.6,0.3c-15.2,2.4-26.8,15.1-28.3,30.9c-3.3,35.1-23.2,65.5-53.4,81.3
	c-21.5,11.3-46.4,13.9-69.9,7.2c-23.5-6.6-43.7-21.9-56.7-43c-14.7-23.7-19.2-51.8-12.8-79.2c6.4-27.4,22.8-50.2,46.3-64.3
	c27.1-16.3,60.5-18,89.2-4.7c14,6.5,30.4,2.3,40-10.1l1-1.3l-1.3-1.1c-43.3-35.3-103.5-38.3-149.7-7.5
	c-26.8,17.9-46.3,45.5-54.7,77.7s-5.2,66.2,9.3,95.8c16.2,33.2,44.1,57.4,78.5,68c12.3,3.8,24.8,5.7,37.2,5.7
	c22.3,0,44.3-6.1,64.2-18c46.2-27.7,71-81.1,63.2-136L729.1,388z"/>
<path class="st0" d="M899.4,244.7L860,262.5l-3.3-6l-1-1.8l-3.3-6l34.5-26.5l5.1-50.4c0,0-33.1,19.9-46,27.6
	c-10.5,6.3-12.4,39.2-12.7,51.1c-22.9,0.9-59.4,11.5-92.3,31.2c-45.6,27.3-80.3,54.9-73.3,80l-66.6,46.9l72.2-36.4
	c17.1,19.5,57.8,2,103.8-25.5c32.8-19.7,59.6-47.8,71.8-67.9c9.9,5.6,38.5,20.6,49.1,14.2c12.9-7.7,46-27.6,46-27.6L899.4,244.7z"/>
</svg>
